<?xml version="1.0" encoding="utf-8"?>
<!-- Generator: Adobe Illustrator 22.0.1, SVG Export Plug-In . SVG Version: 6.00 Build 0)  -->
<svg version="1.1" id="Layer_1" xmlns="http://www.w3.org/2000/svg" xmlns:xlink="http://www.w3.org/1999/xlink" x="0px" y="0px"
	 viewBox="0 0 232.9 33.3" enable-background="new 0 0 232.9 33.3" xml:space="preserve">
<g>
	<path fill="#EF2E2E" d="M116.3,26.6c-4.4-3.5-10.5-5.5-15.8-6.8c-0.5-0.2-0.9-0.3-1.4-0.3l-0.6-0.1c0.4,1,1,1.1,1.6,0.5
		c1.3-0.2,1.7-0.6,3-0.5c1.4,0.2,2.8,0.7,4.1,1.5c3.1,1.7,5.8,3.9,8.7,5.9c0.7,0.5,1.1-0.3,0.7-0.9c-2-2.9-6.3-5-9.4-6.6
		c-3.2-1.6-6.6-2.3-9.7,0c-0.2,0.1-0.3,0.4-0.2,0.6c0.3,0.7,0.9,0.9,1.6,1c1.9,0.5,3.9,0.9,5.8,1.4c4,1.2,7.7,2.9,11.2,5.1
		C116.4,27.8,116.8,27,116.3,26.6L116.3,26.6z"/>
	<path fill="#EF2E2E" d="M115.7,26.3c0.2-3.8-4.4-6.9-6.9-9.1c-1.7-1.5-3.4-2.9-5.1-4.3l-1.8-1.5c-0.2-0.2-1.1-1.1-0.9-0.7l-0.1,0.9
		c1.4-1,4.2,1,5.3,1.7c1.5,1.1,2.9,2.4,4.1,3.9c2.4,2.9,3.8,6,5.5,9.3c0.3,0.6,1.7,1,1.5-0.1c-1.2-4.5-4.5-9-7.8-12.1
		c-1.8-1.7-6.8-6.1-9.7-4.1c-0.3,0.2-0.3,0.6-0.2,0.9c0.4,0.6,0.9,1.1,1.5,1.5l4.2,3.5c3.2,2.7,8.4,5.9,9.4,10.2
		C114.8,26.5,115.7,26.9,115.7,26.3L115.7,26.3z"/>
	<path fill="#EF2E2E" d="M116.7,27c-0.9-6.6-5.6-11.8-7.6-18c-0.2-0.5-0.3-1-0.4-1.6c-0.1-0.3-0.1-0.7-0.1-1c0-0.7,0.1-0.7,0.4,0.2
		c1.5,1.3,2.5,3.8,3.2,5.7c0.9,2.3,1.6,4.6,2.1,7c0.5,2.2,0.5,4.5,1.2,6.7c0.2,0.5,1.3,1.2,1.4,0.3c0.3-2.2-0.4-4.7-0.8-6.8
		c-0.5-2.4-1.2-4.7-2.2-7c-1-2.5-3-7.7-6.3-8c-0.3,0-0.5,0.1-0.6,0.4c-0.9,3,1.3,6.6,2.6,9.1c2.2,4.3,4.8,8.4,6,13.1
		C115.8,27.5,116.8,27.8,116.7,27L116.7,27z"/>
	<path fill="#EF2E2E" d="M117,27.5c3.3-2.1,6.8-3.7,10.5-4.9c1.9-0.6,3.8-1.1,5.8-1.5c0.5-0.1,1.8-0.1,2-0.7c0.1-0.4-0.1-0.7-0.4-1
		c-2.9-2.1-5.9-2-9.1-0.6c-1.9,0.9-3.7,1.9-5.4,3.1c-1.6,1-3.5,2.1-4.5,3.7c-0.4,0.6,0.5,1.5,1.1,1.1c4.6-2.6,11.3-10.3,17-6.3
		l-0.4-1c0.1-0.4-0.6,0-0.9,0c-0.9,0.2-1.7,0.4-2.6,0.6c-2,0.5-4,1.2-6,2c-2.9,1.1-5.6,2.6-8,4.4C115.7,26.9,116.6,27.7,117,27.5
		L117,27.5z"/>
	<path fill="#EF2E2E" d="M117.9,26.5c1.1-4.3,6.1-7.4,9.3-10.1c1.4-1.1,2.8-2.3,4.2-3.4c0.7-0.4,1.3-1,1.8-1.6
		c0.2-0.3-0.1-0.8-0.4-1c-2.9-2-6.9,1.3-9,3.1c-3.6,3.1-7.3,7.8-8.4,12.5c-0.2,0.6,1,1.7,1.4,1c1.8-3.3,3.2-6.6,5.7-9.5
		c1.3-1.6,2.9-2.9,4.5-4.1c0.9-0.7,3.8-2.7,5-1.9l-0.4-1c-0.4,0.6-2.1,1.7-2.8,2.3c-1.5,1.3-3,2.5-4.5,3.8c-2.7,2.3-7.6,5.6-7.3,9.5
		c0,0.4,0.8,1,1,0.4L117.9,26.5z"/>
	<path fill="#EF2E2E" d="M116.9,27.4c1.2-4.4,3.7-8.5,5.8-12.5c1.4-2.6,3.7-6.4,2.8-9.5c-0.2-0.6-0.7-0.9-1.3-0.9
		c-3,0.3-4.9,5.8-5.8,8c-1.5,3.9-3.2,9.1-2.8,13.3c0.1,0.5,1.1,1.4,1.4,0.6c0.6-1.8,0.6-3.8,1-5.7c0.3-1.8,0.8-3.5,1.4-5.3
		c0.6-1.7,1.3-3.4,2.1-5c0.6-1.2,2-4.2,3.6-4.3l-1.3-0.9c1,3.1-2.1,7.6-3.5,10.2c-1.8,3.7-3.9,7.4-4.5,11.5
		C115.8,27.3,116.7,27.9,116.9,27.4L116.9,27.4z"/>
	<path fill="#EF2E2E" d="M116.7,26c0.8-4.7,1.4-9.5,1.9-14.2c0.3-3.4,1-8-0.9-11.1c-0.2-0.4-1.1-1-1.5-0.5c-2.2,3-2.2,7-2.1,10.7
		c0.1,4.3,0.2,9.2,1.4,13.4c0.2,0.5,1.3,1.2,1.4,0.3c0.3-3.8-0.8-7.9-1-11.7s-0.5-8.2,1.8-11.4L116.1,1c1.9,3.1,1,8,0.7,11.4
		c-0.4,4.4-1.3,8.8-1.2,13.3C115.6,26,116.6,26.7,116.7,26L116.7,26z M122.4,29.3c9.2,0.9,18.7,0.3,28,0.3h54.8c9,0,18,0.3,27-0.2
		c0.7,0,0-1.1-0.4-1.1c-9.3-0.5-18.6-0.1-27.9-0.1H149c-8.9,0-18.1-0.6-26.9,0.3C121.5,28.5,122.1,29.2,122.4,29.3L122.4,29.3z
		 M1.7,29.3c9.2,0.9,18.7,0.3,28,0.3h54.7c9,0,18,0.3,27-0.2c0.7,0,0-1.1-0.4-1.1c-9.3-0.5-18.6-0.1-27.9-0.1H28.3
		c-8.9,0-18.1-0.6-26.9,0.3C0.8,28.5,1.4,29.2,1.7,29.3L1.7,29.3z"/>
	<path fill="#EF2E2E" d="M5.6,24.4c-0.9,0.6-1.8,1.2-2.5,2c-0.9,0.7-1.8,1.3-2.8,1.8c-0.6,0.3,0.1,1.1,0.5,1.2
		c1.9,0.4,3.6,1.4,4.8,2.9c0.6,0.7,1.7,0.3,1.1-0.6c-1.4-2-3.6-3.3-6-3.6l0.7,1.3c1.7-1,4.3-2.7,4.7-4.8C5.9,24.5,5.7,24.4,5.6,24.4
		z"/>
	<path fill="#EF2E2E" d="M9.8,25.4c-0.8,1.3-2,2.2-3.5,2.6c-0.8,0.2-0.1,1.1,0.3,1.3c1,0.2,1.9,0.6,2.6,1.2c0.7,0.5,1.1,1.3,1.8,1.8
		c0.2,0.2,0.9,0.3,0.8-0.2C11.7,30,8.4,28.5,6.6,28L7,29.3c1.6-0.5,3-1.8,3.6-3.4C10.7,25.6,10,25.1,9.8,25.4L9.8,25.4z M226.5,24.8
		c1.3,2.1,3.3,3.8,5.5,4.9l-0.3-1.1c-1.5,1.1-2.9,2.3-4.1,3.7c-0.3,0.5,0.4,1.1,0.9,0.9c1.6-1,3-2.2,4.3-3.6c0.3-0.3-0.1-0.9-0.4-1
		c-2-0.9-3.8-2.3-5.3-4C226.9,24.3,226.3,24.3,226.5,24.8z"/>
	<path fill="#EF2E2E" d="M223.4,25.8c0.6,1.2,1.5,2.3,2.6,3l-0.2-0.8c-1,0.9-1.8,2-2.3,3.3c-0.1,0.4,0.6,1.1,1,0.8
		c1.1-0.9,1.9-2,2.5-3.3c0.1-0.2-0.1-0.6-0.3-0.7c-1-0.8-1.9-1.8-3-2.5C223.5,25.6,223.3,25.6,223.4,25.8z"/>
</g>
</svg>
